<?xml version="1.0" encoding="utf-8"?>
<!-- Generator: Adobe Illustrator 19.0.0, SVG Export Plug-In . SVG Version: 6.00 Build 0)  -->
<svg version="1.1" id="Layer_1" xmlns="http://www.w3.org/2000/svg" xmlns:xlink="http://www.w3.org/1999/xlink" x="0px" y="0px"
	 viewBox="-387.7 267.6 127.6 60.7" style="enable-background:new -387.7 267.6 127.6 60.7;" xml:space="preserve">
<style type="text/css">
	.st0{fill:#B93821;}
	.st1{fill:#C4212A;}
	.st2{fill:#FFFFFF;}
</style>
<g id="g32378" transform="translate(460.9141,366.7471)">
	<path id="path32380" class="st0" d="M-779-75.8h-5.5c0.3-2.2,1.1-3.9,2.4-5.3c1.8-1.8,4.1-2.8,6.8-2.8c2.5,0,4.5,0.8,6.2,2.3
		s2.5,3.4,2.5,5.5c0,1.3-0.4,2.5-1.1,3.6s-1.8,2-3.2,2.6c1.8,0.5,3.2,1.5,4.3,2.8c1,1.3,1.5,2.9,1.5,4.7c0,2.6-1,4.9-3,6.7
		c-2,1.8-4.5,2.8-7.6,2.8c-2.9,0-5.3-0.9-7.1-2.6c-1.8-1.7-2.8-4.1-3-7.1h5.6c0.2,1.5,0.8,2.7,1.6,3.4c0.8,0.7,1.9,1.1,3.2,1.1
		s2.4-0.4,3.3-1.3c0.9-0.8,1.3-1.9,1.3-3.1c0-1.3-0.6-2.5-1.8-3.4s-2.9-1.4-5.1-1.4v-4.8c1.4-0.1,2.4-0.3,3.1-0.6
		c0.7-0.3,1.2-0.7,1.6-1.3c0.4-0.5,0.6-1.1,0.6-1.7c0-0.8-0.3-1.5-0.9-2c-0.6-0.5-1.3-0.8-2.2-0.8c-0.8,0-1.6,0.2-2.2,0.7
		C-778.3-77.2-778.7-76.6-779-75.8"/>
</g>
<g id="g32382" transform="translate(467.8633,369.5469)">
	<path id="path32384" class="st0" d="M-767.8-85.9h8.5v29.5h-5.6v-24.2h-6.2L-767.8-85.9z"/>
</g>
<g id="g32386" transform="translate(457.293,364.0303)">
	<path id="path32388" class="st0" d="M-784.8-66c0,16.7-13.5,30.3-30.1,30.3c-16.6,0-30.1-13.6-30.1-30.3
		c0-16.7,13.5-30.3,30.1-30.3C-798.2-96.3-784.8-82.8-784.8-66"/>
</g>
<g id="g32390" transform="translate(453.1777,363.8574)">
	<path id="path32392" class="st1" d="M-791.3-65.4l7.5-8.1c0,0,1.4-0.8,1.7-1.7c-0.1-0.3-0.2-0.6-0.3-0.9c0-0.1-0.1-0.2-0.1-0.2
		c0-0.1-0.1-0.2-0.2-0.4h-1.2l-11.1,10l-0.1-9.1l-1.9-0.9l-2.1,0.9v9.1h-9.5v-9.1l0,0c-2.9,0-9.9-0.9-9.9-0.9l-2.1,0.9v3.7h7.9l0,0
		v17.9h4.1l2.1-0.9l-2.1-7.8h9.5l0,0v8.7h4l2.1-0.9l-2.2-8.3l10.9,9.2h1.2c0.6-1.5,1.1-3.1,1.5-4.7L-791.3-65.4z"/>
</g>
<g id="g32394" transform="translate(456.5098,368.2432)">
	<path id="path32396" class="st2" d="M-786-81.2L-786-81.2L-786-81.2"/>
</g>
<g id="g32398" transform="translate(452.5859,364.7187)">
	<path id="path32400" class="st2" d="M-792.3-68.5v-9.1h-4.1v9.1h-9.5v-9.1l0,0h-12v3.7h7.9V-56h4.1l0,0v-8.7h9.5v8.7h4.1l0,0v-8.7
		L-782-56c0.1-0.3,0.2-0.5,0.3-0.8c0-0.1,0.1-0.3,0.1-0.4c0.1-0.3,0.2-0.5,0.3-0.8c0-0.1,0.1-0.2,0.1-0.3c0.2-0.6,0.3-1.3,0.5-1.9
		l-7.5-6.3l7.5-6.7c-0.3-1.5-0.8-2.9-1.3-4.3l0,0L-792.3-68.5z"/>
</g>
<g id="g32402" transform="translate(437.4434,364.0576)">
	<path id="path32404" class="st1" d="M-816.6-66.1l-0.4,0.2l-1.1-6.1h5.5c2.5,0,3.6,1.7,3.6,3.4c0,1.7-1.1,3.4-3.6,3.4L-816.6-66.1z
		 M-810.3-62.3c4-0.8,5.4-3.5,5.4-6.4c0-5.3-14.1-8.3-14.1-8.3l-1.9,2.4v20h4.3l1.6-0.9l-1.2-6.2h1.9l6.2,7.1h4.4l2.1-0.9
		L-810.3-62.3z"/>
</g>
<g id="g32406" transform="translate(438.0469,366.7607)">
	<path id="path32408" class="st2" d="M-815.6-75.9v6.9h4.6c2.6,0,3.7-1.7,3.7-3.4c0-1.7-1.1-3.4-3.7-3.4h-4.6V-75.9z M-802.2-58.1
		h-4.8l-6.3-7.2h-2.3v7.2h-4.1v-21.6c3.4,0,5.2,0,8.6,0c5.1,0,7.7,3.4,7.7,7.1c0,2.9-1.4,5.9-5.4,6.8l6.5,7.4L-802.2-58.1
		L-802.2-58.1z"/>
</g>
</svg>
